# 3ds Max Wavefront OBJ Exporter v0.97b - (c)2007 guruware
# File Created: 14.02.2018 20:39:55

#
# object Mesh08
#

v  1663.5728 870.6954 -14745.7979
v  1665.5970 877.3813 -14745.7979
v  1665.5970 877.3813 -14438.2402
v  1663.5728 870.6954 -14438.2402
v  1339.4629 870.6954 -14745.7979
v  1337.4386 877.3813 -14745.7979
v  1660.2850 864.5316 -14745.7979
v  1342.7507 864.5316 -14745.7979
v  1655.8600 859.1261 -14745.7979
v  1347.1758 859.1261 -14745.7979
v  1650.4669 854.6859 -14745.7979
v  1352.5688 854.6859 -14745.7979
v  1644.3121 851.3810 -14745.7979
v  1358.7234 851.3810 -14745.7979
v  1644.3121 851.3810 -14438.2402
v  1358.7234 851.3810 -14438.2402
v  1650.4669 854.6859 -14438.2402
v  1655.8600 859.1261 -14438.2402
v  1660.2850 864.5316 -14438.2402
v  1342.7507 864.5316 -14438.2402
v  1347.1758 859.1261 -14438.2402
v  1352.5688 854.6859 -14438.2402
v  1339.4629 870.6954 -14438.2402
v  1666.2805 884.3336 -14438.2402
v  1337.4386 877.3813 -14438.2402
v  1666.2805 884.3336 -14745.7979
v  1336.7551 884.3336 -14745.7979
v  1336.7551 884.3336 -14438.2402
v  1665.5970 891.2859 -14438.2402
v  1665.5970 891.2859 -14745.7979
v  1337.4386 891.2859 -14745.7979
v  1337.4386 891.2859 -14438.2402
v  1663.5728 897.9718 -14438.2402
v  1663.5728 897.9718 -14745.7979
v  1339.4629 897.9718 -14745.7979
v  1339.4629 897.9718 -14438.2402
v  1660.2850 904.1356 -14438.2402
v  1660.2850 904.1356 -14745.7979
v  1342.7507 904.1356 -14745.7979
v  1342.7507 904.1356 -14438.2402
v  1655.8600 909.5411 -14438.2402
v  1655.8600 909.5411 -14745.7979
v  1347.1758 909.5411 -14745.7979
v  1347.1758 909.5411 -14438.2402
v  1650.4669 913.9813 -14438.2402
v  1650.4669 913.9813 -14745.7979
v  1352.5688 913.9813 -14745.7979
v  1352.5688 913.9813 -14438.2402
v  1644.3121 917.2862 -14438.2402
v  1644.3121 917.2862 -14745.7979
v  1358.7234 917.2862 -14745.7979
v  1358.7234 917.2862 -14438.2402
v  1650.4669 920.5910 -14438.2402
v  1352.5688 920.5910 -14438.2402
v  1655.8600 925.0312 -14438.2402
v  1347.1758 925.0312 -14438.2402
v  1650.4669 920.5910 -14745.7979
v  1655.8600 925.0312 -14745.7979
v  1352.5688 920.5910 -14745.7979
v  1347.1758 925.0312 -14745.7979
v  1342.7507 930.4367 -14438.2402
v  1342.7507 930.4367 -14745.7979
v  1660.2850 930.4367 -14438.2402
v  1660.2850 930.4367 -14745.7979
v  1339.4629 936.6005 -14745.7979
v  1663.5728 936.6005 -14745.7979
v  1339.4629 936.6005 -14438.2402
v  1663.5728 936.6005 -14438.2402
v  1337.4386 943.2864 -14745.7979
v  1665.5970 943.2864 -14745.7979
v  1337.4386 943.2864 -14438.2402
v  1665.5970 943.2864 -14438.2402
v  1336.7551 950.2387 -14745.7979
v  1666.2805 950.2387 -14745.7979
v  1336.7551 950.2387 -14438.2402
v  1666.2805 950.2387 -14438.2402
v  1337.4386 957.1910 -14745.7979
v  1665.5970 957.1910 -14745.7979
v  1337.4386 957.1910 -14438.2402
v  1665.5970 957.1910 -14438.2402
v  1339.4629 963.8770 -14745.7979
v  1663.5728 963.8770 -14745.7979
v  1339.4629 963.8770 -14438.2402
v  1663.5728 963.8770 -14438.2402
v  1342.7507 970.0407 -14745.7979
v  1660.2850 970.0407 -14745.7979
v  1342.7507 970.0407 -14438.2402
v  1660.2850 970.0407 -14438.2402
v  1347.1758 975.4462 -14745.7979
v  1655.8600 975.4462 -14745.7979
v  1347.1758 975.4462 -14438.2402
v  1655.8600 975.4462 -14438.2402
v  1352.5688 979.8864 -14745.7979
v  1650.4669 979.8864 -14745.7979
v  1352.5688 979.8864 -14438.2402
v  1650.4669 979.8864 -14438.2402
v  1358.7234 983.1913 -14745.7979
v  1644.3121 983.1913 -14745.7979
v  1358.7234 983.1913 -14438.2402
v  1644.3121 983.1913 -14438.2402
# 100 vertices

vn 0.9241 -0.3820 -0.0000
vn 0.9809 -0.1947 -0.0000
vn 0.9571 -0.2898 -0.0000
vn 0.0000 0.0000 -1.0000
vn 0.0000 -1.0000 -0.0000
vn 0.5570 -0.8305 -0.0000
vn 0.4731 -0.8810 -0.0000
vn 0.7081 -0.7061 -0.0000
vn 0.6356 -0.7720 -0.0000
vn 0.8321 -0.5547 -0.0000
vn 0.7738 -0.6334 -0.0000
vn 0.8823 -0.4706 -0.0000
vn 0.0000 0.0000 1.0000
vn -0.5570 -0.8305 -0.0000
vn -0.4731 -0.8810 -0.0000
vn -0.7081 -0.7061 -0.0000
vn -0.8321 -0.5547 -0.0000
vn -0.9241 -0.3820 -0.0000
vn 0.9952 -0.0978 -0.0000
vn 1.0000 -0.0000 -0.0000
vn -0.9809 -0.1947 -0.0000
vn -1.0000 -0.0000 -0.0000
vn 0.9809 0.1948 -0.0000
vn 0.9952 0.0978 -0.0000
vn -0.9809 0.1948 -0.0000
vn 0.9571 0.2898 -0.0000
vn 0.9241 0.3820 -0.0000
vn -0.9241 0.3820 -0.0000
vn 0.8321 0.5547 -0.0000
vn 0.8823 0.4706 -0.0000
vn -0.8321 0.5547 -0.0000
vn 0.7081 0.7061 -0.0000
vn 0.7738 0.6334 -0.0000
vn -0.7081 0.7061 -0.0000
vn 0.5570 0.8305 -0.0000
vn 0.6356 0.7720 -0.0000
vn -0.5570 0.8305 -0.0000
vn 0.4731 0.8810 -0.0000
vn -0.4731 0.8810 -0.0000
vn -0.6356 -0.7720 -0.0000
vn -0.7738 -0.6334 -0.0000
vn -0.8823 -0.4706 -0.0000
vn -0.9571 -0.2898 -0.0000
vn -0.9952 -0.0978 -0.0000
vn -1.0000 0.0000 -0.0000
vn 1.0000 0.0000 -0.0000
vn -0.9952 0.0978 -0.0000
vn -0.9809 0.1947 -0.0000
vn 0.9809 0.1947 -0.0000
vn -0.9571 0.2898 -0.0000
vn -0.8823 0.4706 -0.0000
vn -0.7738 0.6334 -0.0000
vn -0.6356 0.7720 -0.0000
vn 0.0000 0.5101 -0.8601
vn 0.0000 0.5101 0.8601
# 55 vertex normals

vt 0.1062 -1.1667 0.0000
vt 0.1327 -1.1667 0.0000
vt 0.1327 -0.0000 0.0000
vt 0.1062 -0.0000 0.0000
vt -37.3283 3.2497 0.0000
vt -36.2341 3.2497 0.0000
vt -36.2272 3.2723 0.0000
vt -37.3351 3.2723 0.0000
vt -37.3172 3.2289 0.0000
vt -36.2452 3.2289 0.0000
vt -37.3022 3.2107 0.0000
vt -36.2601 3.2107 0.0000
vt -37.2840 3.1957 0.0000
vt -36.2783 3.1957 0.0000
vt -37.2633 3.1845 0.0000
vt -36.2991 3.1845 0.0000
vt -37.2633 17.6915 0.0000
vt -37.2633 16.6532 0.0000
vt -36.2991 16.6532 0.0000
vt -36.2991 17.6915 0.0000
vt 0.0265 -1.1667 0.0000
vt 0.0265 -0.0000 0.0000
vt -0.0000 -0.0000 0.0000
vt 0.0000 -1.1667 0.0000
vt 0.0531 -1.1667 0.0000
vt 0.0531 -0.0000 0.0000
vt 0.0796 -1.1667 0.0000
vt 0.0796 -0.0000 0.0000
vt 36.2452 3.2289 0.0000
vt 36.2601 3.2107 0.0000
vt 37.3172 3.2289 0.0000
vt 37.3283 3.2497 0.0000
vt 36.2783 3.1957 0.0000
vt 37.3022 3.2107 0.0000
vt 36.2991 3.1845 0.0000
vt 37.2840 3.1957 0.0000
vt 37.2633 3.1845 0.0000
vt 0.0265 -0.3333 0.0000
vt 0.0265 0.8333 0.0000
vt -0.0000 0.8333 0.0000
vt -0.0000 -0.3333 0.0000
vt 0.0531 -0.3333 0.0000
vt 0.0531 0.8333 0.0000
vt 0.0796 -0.3333 0.0000
vt 0.0796 0.8333 0.0000
vt 0.1062 -0.3333 0.0000
vt 0.1062 0.8333 0.0000
vt 37.3351 3.2723 0.0000
vt 36.2341 3.2497 0.0000
vt 37.3374 3.2958 0.0000
vt 36.2272 3.2723 0.0000
vt 0.1593 -1.1667 0.0000
vt 0.1593 -0.0000 0.0000
vt -36.2249 3.2958 0.0000
vt -37.3374 3.2958 0.0000
vt 0.1327 -0.3333 0.0000
vt 0.1593 -0.3333 0.0000
vt 0.1593 0.8333 0.0000
vt 0.1327 0.8333 0.0000
vt 37.3351 3.3193 0.0000
vt 36.2249 3.2958 0.0000
vt 0.1858 -1.1667 0.0000
vt 0.1858 -0.0000 0.0000
vt -36.2272 3.3193 0.0000
vt -37.3351 3.3193 0.0000
vt 0.1858 -0.3333 0.0000
vt 0.1858 0.8333 0.0000
vt 37.3283 3.3418 0.0000
vt 36.2272 3.3193 0.0000
vt 0.2123 -1.1667 0.0000
vt 0.2123 -0.0000 0.0000
vt -36.2341 3.3418 0.0000
vt -37.3283 3.3418 0.0000
vt 0.2123 -0.3333 0.0000
vt 0.2123 0.8333 0.0000
vt 37.3172 3.3626 0.0000
vt 36.2341 3.3418 0.0000
vt 0.2389 -1.1667 0.0000
vt 0.2389 -0.0000 0.0000
vt -36.2452 3.3626 0.0000
vt -37.3172 3.3626 0.0000
vt 0.2389 -0.3333 0.0000
vt 0.2389 0.8333 0.0000
vt 37.3022 3.3809 0.0000
vt 36.2452 3.3626 0.0000
vt 0.2654 -1.1667 0.0000
vt 0.2654 -0.0000 0.0000
vt -36.2601 3.3809 0.0000
vt -37.3022 3.3809 0.0000
vt 0.2654 -0.3333 0.0000
vt 0.2654 0.8333 0.0000
vt 37.2840 3.3959 0.0000
vt 36.2601 3.3809 0.0000
vt 0.2920 -1.1667 0.0000
vt 0.2920 0.0000 0.0000
vt 0.2654 0.0000 0.0000
vt -36.2783 3.3959 0.0000
vt -37.2840 3.3959 0.0000
vt 0.2920 -0.3333 0.0000
vt 0.2920 0.8333 0.0000
vt 37.2633 3.4070 0.0000
vt 36.2783 3.3959 0.0000
vt 0.3185 -1.1667 0.0000
vt 0.3185 -0.0000 0.0000
vt 0.2920 -0.0000 0.0000
vt -36.2991 3.4070 0.0000
vt -37.2633 3.4070 0.0000
vt 0.3185 -0.3333 0.0000
vt 0.3185 0.8333 0.0000
vt 36.2991 3.4070 0.0000
vt 0.4698 4.2026 0.0000
vt 0.4698 5.3326 0.0000
vt 0.4572 5.3093 0.0000
vt 0.4572 4.2259 0.0000
vt 0.4866 4.1821 0.0000
vt 0.4866 5.3531 0.0000
vt -3.5780 4.5851 0.0000
vt -4.7465 4.5851 0.0000
vt -4.7465 4.5586 0.0000
vt -3.5780 4.5586 0.0000
vt -3.5780 4.6117 0.0000
vt -4.7465 4.6117 0.0000
vt 0.0265 0.0000 0.0000
vt 0.0265 1.1667 0.0000
vt 0.0000 1.1667 0.0000
vt 0.0000 0.0000 0.0000
vt 0.0531 0.0000 0.0000
vt 0.0531 1.1667 0.0000
vt 0.0796 0.0000 0.0000
vt 0.0796 1.1667 0.0000
vt 0.5071 4.1654 0.0000
vt 0.5071 5.3699 0.0000
vt -4.7465 4.5321 0.0000
vt -3.5780 4.5321 0.0000
vt 2.0964 4.1821 0.0000
vt 2.0964 5.3531 0.0000
vt 2.0759 5.3699 0.0000
vt 2.0759 4.1654 0.0000
vt 2.1132 4.2026 0.0000
vt 2.1132 5.3326 0.0000
vt 2.1258 4.2259 0.0000
vt 2.1258 5.3093 0.0000
vt 2.0525 5.3823 0.0000
vt 2.0525 4.1529 0.0000
vt 0.1062 1.1667 0.0000
vt 0.5305 4.1529 0.0000
vt 0.5305 5.3823 0.0000
vt -4.7465 4.5055 0.0000
vt -3.5780 4.5055 0.0000
vt 2.0271 5.3900 0.0000
vt 2.0271 4.1452 0.0000
vt 0.1327 1.1667 0.0000
vt 0.5558 4.1452 0.0000
vt 0.5558 5.3900 0.0000
vt -4.7465 4.4790 0.0000
vt -3.5780 4.4790 0.0000
vt 2.0008 5.3926 0.0000
vt 2.0008 4.1426 0.0000
vt 0.1327 0.0000 0.0000
vt 0.1593 0.0000 0.0000
vt 0.1593 1.1667 0.0000
vt 0.5822 4.1426 0.0000
vt 0.5822 5.3926 0.0000
vt -4.7465 4.4524 0.0000
vt -3.5780 4.4524 0.0000
vt 1.9744 5.3900 0.0000
vt 1.9744 4.1452 0.0000
vt 0.1858 0.0000 0.0000
vt 0.1858 1.1667 0.0000
vt 0.6086 4.1452 0.0000
vt 0.6086 5.3900 0.0000
vt -4.7465 4.4259 0.0000
vt -3.5780 4.4259 0.0000
vt 1.9490 5.3823 0.0000
vt 1.9490 4.1529 0.0000
vt 0.2123 1.1667 0.0000
vt 0.6340 4.1529 0.0000
vt 0.6340 5.3823 0.0000
vt -4.7465 4.3993 0.0000
vt -3.5780 4.3993 0.0000
vt 1.9256 5.3699 0.0000
vt 1.9256 4.1654 0.0000
vt 0.2389 1.1667 0.0000
vt 0.6573 4.1654 0.0000
vt 0.6573 5.3699 0.0000
vt -4.7465 4.3728 0.0000
vt -3.5780 4.3728 0.0000
vt 1.9051 5.3531 0.0000
vt 1.9051 4.1821 0.0000
vt 0.2389 0.0000 0.0000
vt 0.2654 1.1667 0.0000
vt 0.6778 4.1821 0.0000
vt 0.6778 5.3531 0.0000
vt -4.7465 4.3463 0.0000
vt -3.5780 4.3463 0.0000
vt 1.8883 5.3326 0.0000
vt 1.8883 4.2026 0.0000
vt 0.2920 1.1667 0.0000
vt 0.6947 4.2026 0.0000
vt 0.6947 5.3326 0.0000
vt -4.7465 4.3197 0.0000
vt -3.5780 4.3197 0.0000
vt 1.8758 5.3093 0.0000
vt 1.8758 4.2259 0.0000
vt 0.3185 0.0000 0.0000
vt 0.3185 1.1667 0.0000
vt 0.7072 4.2259 0.0000
vt 0.7072 5.3093 0.0000
vt -4.7465 4.2932 0.0000
vt -3.5780 4.2932 0.0000
# 210 texture coords

o Mesh08
g Mesh08
s 1
f 1/1/1 2/2/2 3/3/3 4/4/1 
s off
f 1/5/4 5/6/4 6/7/4 2/8/4 
f 7/9/4 8/10/4 5/6/4 1/5/4 
f 9/11/4 10/12/4 8/10/4 7/9/4 
f 11/13/4 12/14/4 10/12/4 9/11/4 
f 13/15/4 14/16/4 12/14/4 11/13/4 
f 13/17/5 15/18/5 16/19/5 14/20/5 
s 1
f 11/21/6 17/22/7 15/23/7 13/24/7 
f 9/25/8 18/26/9 17/22/9 11/21/6 
f 9/25/8 7/27/10 19/28/11 18/26/11 
f 1/1/1 4/4/1 19/28/12 7/27/10 
s off
f 20/29/13 21/30/13 19/31/13 4/32/13 
f 21/30/13 22/33/13 18/34/13 19/31/13 
f 22/33/13 16/35/13 17/36/13 18/34/13 
f 17/36/13 16/35/13 15/37/13 
s 1
f 22/38/14 12/39/14 14/40/15 16/41/15 
f 21/42/16 10/43/16 12/39/14 22/38/14 
f 21/42/16 20/44/17 8/45/17 10/43/16 
f 20/44/17 23/46/18 5/47/18 8/45/17 
s off
f 20/29/13 4/32/13 3/48/13 23/49/13 
f 23/49/13 3/48/13 24/50/13 25/51/13 
s 1
f 3/3/19 2/2/2 26/52/20 24/53/19 
s off
f 2/8/4 6/7/4 27/54/4 26/55/4 
s 1
f 25/56/21 28/57/22 27/58/22 6/59/21 
s off
f 25/51/13 24/50/13 29/60/13 28/61/13 
s 1
f 26/52/20 30/62/23 29/63/24 24/53/24 
s off
f 26/55/4 27/54/4 31/64/4 30/65/4 
s 1
f 28/57/22 32/66/25 31/67/25 27/58/22 
s off
f 28/61/13 29/60/13 33/68/13 32/69/13 
s 1
f 29/63/26 30/62/23 34/70/27 33/71/26 
s off
f 30/65/4 31/64/4 35/72/4 34/73/4 
s 1
f 32/66/25 36/74/28 35/75/28 31/67/25 
s off
f 32/69/13 33/68/13 37/76/13 36/77/13 
s 1
f 34/70/27 38/78/29 37/79/29 33/71/30 
s off
f 34/73/4 35/72/4 39/80/4 38/81/4 
s 1
f 36/74/28 40/82/31 39/83/31 35/75/28 
s off
f 36/77/13 37/76/13 41/84/13 40/85/13 
s 1
f 37/79/29 38/78/29 42/86/32 41/87/33 
s off
f 38/81/4 39/80/4 43/88/4 42/89/4 
s 1
f 40/82/31 44/90/34 43/91/34 39/83/31 
s off
f 40/85/13 41/84/13 45/92/13 44/93/13 
s 1
f 42/86/32 46/94/35 45/95/36 41/96/36 
s off
f 42/89/4 43/88/4 47/97/4 46/98/4 
s 1
f 43/91/34 44/90/34 48/99/37 47/100/37 
s off
f 44/93/13 45/92/13 49/101/13 48/102/13 
s 1
f 46/94/35 50/103/38 49/104/38 45/105/38 
s off
f 46/98/4 47/97/4 51/106/4 50/107/4 
s 1
f 47/100/37 48/99/37 52/108/39 51/109/39 
s off
f 48/102/13 49/101/13 52/110/13 
f 53/111/13 54/112/13 52/113/13 49/114/13 
f 54/112/13 53/111/13 55/115/13 56/116/13 
s 1
f 53/117/6 57/118/6 58/119/8 55/120/8 
f 49/121/7 50/122/7 57/118/6 53/117/6 
s off
f 52/19/5 51/20/5 50/17/5 49/18/5 
s 1
f 54/123/15 59/124/14 51/125/15 52/126/15 
f 56/127/40 60/128/16 59/124/14 54/123/40 
f 56/127/41 61/129/41 62/130/17 60/128/16 
s off
f 56/116/13 55/115/13 63/131/13 61/132/13 
s 1
f 58/119/8 64/133/10 63/134/10 55/120/8 
s off
f 58/135/4 60/136/4 62/137/4 64/138/4 
f 57/139/4 59/140/4 60/136/4 58/135/4 
f 50/141/4 51/142/4 59/140/4 57/139/4 
f 64/138/4 62/137/4 65/143/4 66/144/4 
s 1
f 61/28/42 67/4/42 65/145/18 62/130/17 
s off
f 61/132/13 63/131/13 68/146/13 67/147/13 
s 1
f 63/134/10 64/133/10 66/148/1 68/149/1 
s off
f 66/144/4 65/143/4 69/150/4 70/151/4 
s 1
f 67/4/43 71/3/43 69/152/21 65/145/18 
s off
f 67/147/13 68/146/13 72/153/13 71/154/13 
s 1
f 66/148/1 70/155/2 72/156/2 68/149/1 
s off
f 70/151/4 69/150/4 73/157/4 74/158/4 
s 1
f 71/159/44 75/160/44 73/161/45 69/152/21 
s off
f 71/154/13 72/153/13 76/162/13 75/163/13 
s 1
f 72/156/2 70/155/2 74/164/46 76/165/46 
s off
f 74/158/4 73/157/4 77/166/4 78/167/4 
s 1
f 75/160/47 79/168/47 77/169/48 73/161/45 
s off
f 75/163/13 76/162/13 80/170/13 79/171/13 
s 1
f 74/164/46 78/172/49 80/173/49 76/165/46 
s off
f 78/167/4 77/166/4 81/174/4 82/175/4 
s 1
f 79/63/50 83/71/50 81/176/28 77/169/48 
s off
f 79/171/13 80/170/13 84/177/13 83/178/13 
s 1
f 80/173/49 78/172/49 82/179/27 84/180/27 
s off
f 82/175/4 81/174/4 85/181/4 86/182/4 
s 1
f 83/71/51 87/79/51 85/183/31 81/176/28 
s off
f 83/178/13 84/177/13 88/184/13 87/185/13 
s 1
f 82/179/27 86/186/29 88/187/29 84/180/27 
s off
f 86/182/4 85/181/4 89/188/4 90/189/4 
s 1
f 87/190/52 91/96/34 89/191/34 85/183/31 
s off
f 87/185/13 88/184/13 92/192/13 91/193/13 
s 1
f 88/187/29 86/186/29 90/194/32 92/195/32 
s off
f 90/189/4 89/188/4 93/196/4 94/197/4 
s 1
f 89/191/34 91/96/34 95/95/53 93/198/37 
s off
f 91/193/13 92/192/13 96/199/13 95/200/13 
s 1
f 90/194/32 94/201/35 96/202/35 92/195/32 
s off
f 94/197/4 93/196/4 97/203/54 98/204/54 
s 1
f 93/198/37 95/95/39 99/205/39 97/206/39 
s off
f 95/200/13 96/199/13 100/207/55 99/208/55 
s 1
f 94/201/35 98/209/38 100/210/38 96/202/35 
s off
f 99/208/55 100/207/55 98/204/54 97/203/54 
s 1
f 6/59/21 5/47/18 23/46/18 25/56/21 
# 98 polygons - 2 triangles

