# 3ds Max Wavefront OBJ Exporter v0.97b - (c)2007 guruware
# File Created: 14.02.2018 20:38:27

#
# object Mesh132
#

v  2389.6958 986.4617 -15558.3408
v  2389.6958 986.4617 -15568.9307
v  2381.5459 993.3358 -15568.9307
v  2381.5459 993.3358 -15560.5244
v  2404.8535 975.7880 -15554.2793
v  2404.8535 975.7880 -15568.9307
v  2413.8828 959.2712 -15551.8594
v  2413.8828 959.2712 -15568.9307
v  2390.2024 975.7880 -15528.9033
v  2396.8125 959.2712 -15522.2930
v  2364.8262 975.7880 -15514.2520
v  2367.2458 959.2712 -15505.2227
v  2379.1064 986.4617 -15539.9990
v  2360.7646 986.4617 -15529.4102
v  2373.1404 993.3358 -15545.9648
v  2358.5811 993.3358 -15537.5586
v  2373.1404 1001.7732 -15545.9648
v  2358.5811 1001.7732 -15537.5586
v  2350.1753 1001.7732 -15537.5586
v  2350.1753 993.3358 -15537.5586
v  2341.7695 1001.7732 -15537.5586
v  2341.7695 993.3358 -15537.5586
v  2327.2104 1001.7732 -15545.9648
v  2327.2104 993.3358 -15545.9648
v  2318.8049 1001.7732 -15560.5244
v  2318.8049 993.3358 -15560.5244
v  2318.8049 1001.7732 -15568.9307
v  2318.8049 993.3358 -15568.9307
v  2318.8049 1001.7732 -15577.3359
v  2318.8049 993.3358 -15577.3359
v  2327.2104 1001.7732 -15591.8945
v  2327.2104 993.3358 -15591.8945
v  2341.7695 1001.7732 -15600.3018
v  2341.7695 993.3358 -15600.3018
v  2350.1753 1001.7732 -15600.3018
v  2350.1753 993.3358 -15600.3018
v  2358.5811 1001.7732 -15600.3018
v  2358.5811 993.3358 -15600.3018
v  2373.1404 1001.7732 -15591.8945
v  2373.1404 993.3358 -15591.8945
v  2381.5459 1001.7732 -15577.3359
v  2381.5459 993.3358 -15577.3359
v  2381.5459 1001.7732 -15568.9307
v  2381.5459 1001.7732 -15560.5244
v  2389.6958 986.4617 -15579.5195
v  2404.8535 975.7880 -15583.5801
v  2413.8828 959.2712 -15586.0010
v  2414.9187 940.3231 -15568.9307
v  2414.9187 940.3231 -15586.2783
v  2414.9187 940.3231 -15551.5830
v  2397.5708 940.3231 -15521.5352
v  2367.5234 940.3231 -15504.1865
v  2350.1753 959.2712 -15505.2227
v  2350.1753 940.3231 -15504.1865
v  2350.1753 975.7880 -15514.2520
v  2350.1753 986.4617 -15529.4102
v  2339.5859 986.4617 -15529.4102
v  2321.2444 986.4617 -15539.9990
v  2310.6548 986.4617 -15558.3408
v  2310.6548 986.4617 -15568.9307
v  2310.6548 986.4617 -15579.5195
v  2321.2444 986.4617 -15597.8604
v  2339.5859 986.4617 -15608.4502
v  2350.1753 986.4617 -15608.4502
v  2360.7646 986.4617 -15608.4502
v  2379.1064 986.4617 -15597.8604
v  2390.2024 975.7880 -15608.9570
v  2396.8125 959.2712 -15615.5674
v  2397.5708 940.3231 -15616.3252
v  2389.6958 866.7758 -15579.5195
v  2379.1064 866.7758 -15597.8604
v  2389.6958 866.7758 -15568.9307
v  2389.6958 866.7758 -15558.3408
v  2379.1064 866.7758 -15539.9990
v  2360.7646 866.7758 -15529.4102
v  2350.1753 866.7758 -15529.4102
v  2332.8271 940.3231 -15504.1865
v  2339.5859 866.7758 -15529.4102
v  2333.1047 959.2712 -15505.2227
v  2335.5244 975.7880 -15514.2520
v  2310.1482 975.7880 -15528.9033
v  2295.4973 975.7880 -15554.2793
v  2295.4973 975.7880 -15568.9307
v  2295.4973 975.7880 -15583.5801
v  2310.1482 975.7880 -15608.9570
v  2335.5244 975.7880 -15623.6074
v  2350.1753 975.7880 -15623.6074
v  2364.8262 975.7880 -15623.6074
v  2367.2458 959.2712 -15632.6377
v  2367.5234 940.3231 -15633.6738
v  2360.7646 866.7758 -15608.4502
v  2350.1753 866.7758 -15608.4502
v  2350.1753 866.7758 -15568.9307
v  2339.5859 866.7758 -15608.4502
v  2321.2444 866.7758 -15597.8604
v  2310.6548 866.7758 -15579.5195
v  2310.6548 866.7758 -15568.9307
v  2285.4319 940.3231 -15568.9307
v  2285.4319 940.3231 -15586.2783
v  2310.6548 866.7758 -15558.3408
v  2285.4319 940.3231 -15551.5830
v  2321.2444 866.7758 -15539.9990
v  2302.7800 940.3231 -15521.5352
v  2303.5383 959.2712 -15522.2930
v  2286.4678 959.2712 -15551.8594
v  2286.4678 959.2712 -15568.9307
v  2286.4678 959.2712 -15586.0010
v  2303.5383 959.2712 -15615.5674
v  2333.1047 959.2712 -15632.6377
v  2350.1753 959.2712 -15632.6377
v  2350.1753 940.3231 -15633.6738
v  2332.8271 940.3231 -15633.6738
v  2302.7800 940.3231 -15616.3252
# 113 vertices

vn 0.6447 0.7644 -0.0000
vn 0.5758 0.8176 -0.0000
vn 0.8774 0.4797 -0.0000
vn 0.7599 0.4797 0.4387
vn 0.4387 0.4797 0.7599
vn 0.2879 0.8176 0.4986
vn 0.3224 0.7644 0.5583
vn 0.3224 0.7644 0.5584
vn 0.5000 0.0000 0.8660
vn 0.0000 0.0000 1.0000
vn -0.5000 0.0000 0.8660
vn -0.8660 0.0000 0.5000
vn -1.0000 0.0000 -0.0000
vn -0.8660 0.0000 -0.5000
vn -0.5000 0.0000 -0.8660
vn 0.0000 0.0000 -1.0000
vn 0.5000 0.0000 -0.8660
vn 0.8660 0.0000 -0.5000
vn 1.0000 0.0000 -0.0000
vn 0.8660 0.0000 0.5000
vn 0.5584 0.7644 0.3224
vn 0.4986 0.8176 0.2879
vn 0.9985 0.0546 -0.0000
vn 0.8647 0.0546 0.4993
vn 0.8647 0.0546 0.4992
vn 0.4992 0.0546 0.8647
vn 0.4993 0.0546 0.8647
vn 0.0000 0.0546 0.9985
vn 0.0000 0.4797 0.8775
vn 0.0000 0.8176 0.5758
vn 0.0000 0.7644 0.6448
vn -0.3224 0.7644 0.5583
vn -0.3224 0.7644 0.5584
vn -0.5584 0.7644 0.3224
vn -0.5583 0.7644 0.3224
vn -0.6447 0.7644 -0.0000
vn -0.5584 0.7644 -0.3224
vn -0.3224 0.7644 -0.5584
vn 0.0000 0.7644 -0.6448
vn 0.3224 0.7644 -0.5584
vn 0.5584 0.7644 -0.3224
vn 0.4986 0.8176 -0.2879
vn 0.7599 0.4797 -0.4387
vn 0.8647 0.0546 -0.4993
vn 0.8192 -0.3244 -0.4730
vn 0.9459 -0.3244 -0.0000
vn 0.8192 -0.3244 0.4730
vn 0.4730 -0.3244 0.8192
vn 0.4729 -0.3244 0.8192
vn 0.0000 -0.3244 0.9459
vn -0.2879 0.8176 0.4986
vn -0.4986 0.8176 0.2879
vn -0.5758 0.8176 -0.0000
vn -0.4986 0.8176 -0.2879
vn -0.2879 0.8176 -0.4986
vn 0.0000 0.8176 -0.5758
vn 0.2879 0.8176 -0.4986
vn 0.4387 0.4797 -0.7599
vn 0.4993 0.0546 -0.8647
vn 0.4730 -0.3244 -0.8192
vn 0.0000 1.0000 -0.0000
vn -0.9459 -0.3244 -0.0000
vn -0.8192 -0.3244 0.4730
vn -0.4729 -0.3244 0.8192
vn -0.4730 -0.3244 0.8192
vn -0.4992 0.0546 0.8647
vn -0.4993 0.0546 0.8647
vn -0.4387 0.4797 0.7599
vn -0.7599 0.4797 0.4387
vn -0.8774 0.4797 -0.0000
vn -0.7599 0.4797 -0.4387
vn -0.4387 0.4797 -0.7599
vn 0.0000 0.4797 -0.8774
vn 0.0000 0.0546 -0.9985
vn 0.0000 -0.3244 -0.9459
vn -0.4730 -0.3244 -0.8192
vn -0.8192 -0.3244 -0.4730
vn -0.8647 0.0546 -0.4993
vn -0.9985 0.0546 -0.0000
vn -0.8647 0.0546 0.4993
vn -0.4993 0.0546 -0.8647
# 81 vertex normals

vt 161.1506 -5.4657 0.0000
vt 161.5796 -5.4657 0.0000
vt 161.5796 -5.0337 0.0000
vt 161.2391 -5.0337 0.0000
vt 160.9860 -11.5723 0.0000
vt 161.5796 -11.5723 0.0000
vt 161.5796 -10.8212 0.0000
vt 161.1506 -10.8212 0.0000
vt 160.9860 16.5538 0.0000
vt 160.8880 15.7912 0.0000
vt 161.5796 15.7912 0.0000
vt 161.5796 16.5538 0.0000
vt 160.5372 58.0315 0.0000
vt 160.4392 57.2689 0.0000
vt 161.8223 57.2689 0.0000
vt 161.7243 58.0315 0.0000
vt 118.1006 93.8445 0.0000
vt 116.9135 93.8445 0.0000
vt 116.8154 93.0819 0.0000
vt 118.1986 93.0819 0.0000
vt 117.9360 120.9229 0.0000
vt 117.0780 120.9229 0.0000
vt 116.9135 120.1718 0.0000
vt 118.1006 120.1718 0.0000
vt 117.8475 118.1346 0.0000
vt 117.1665 118.1346 0.0000
vt 117.0780 117.7027 0.0000
vt 117.9360 117.7027 0.0000
vt 117.8475 44.3072 0.0000
vt 117.1665 44.3072 0.0000
vt 117.1665 43.9654 0.0000
vt 117.8475 43.9654 0.0000
vt 42.7379 44.3072 0.0000
vt 42.3974 44.3072 0.0000
vt 42.3974 43.9654 0.0000
vt 42.7379 43.9654 0.0000
vt 42.0568 44.3072 0.0000
vt 42.0568 43.9654 0.0000
vt -43.7320 44.3072 0.0000
vt -44.4131 44.3072 0.0000
vt -44.4131 43.9654 0.0000
vt -43.7320 43.9654 0.0000
vt -119.0739 44.3072 0.0000
vt -119.0739 43.9654 0.0000
vt -118.3928 43.9654 0.0000
vt -118.3928 44.3072 0.0000
vt -161.5796 44.3072 0.0000
vt -161.5796 43.9654 0.0000
vt -161.2391 43.9654 0.0000
vt -161.2391 44.3072 0.0000
vt -161.9201 44.3072 0.0000
vt -161.9201 43.9654 0.0000
vt -161.4713 44.3072 0.0000
vt -161.4713 43.9654 0.0000
vt -160.7902 43.9654 0.0000
vt -160.7902 44.3072 0.0000
vt -117.1665 44.3072 0.0000
vt -117.8475 44.3072 0.0000
vt -117.8475 43.9654 0.0000
vt -117.1665 43.9654 0.0000
vt -42.0568 44.3072 0.0000
vt -42.3974 44.3072 0.0000
vt -42.3974 43.9654 0.0000
vt -42.0568 43.9654 0.0000
vt -42.7379 44.3072 0.0000
vt -42.7379 43.9654 0.0000
vt 44.4131 44.3072 0.0000
vt 43.7320 44.3072 0.0000
vt 43.7320 43.9654 0.0000
vt 44.4131 43.9654 0.0000
vt 118.3928 44.3072 0.0000
vt 118.3928 43.9654 0.0000
vt 119.0739 43.9654 0.0000
vt 119.0739 44.3072 0.0000
vt 161.5796 44.3072 0.0000
vt 161.5796 43.9654 0.0000
vt 161.9201 43.9654 0.0000
vt 161.9201 44.3072 0.0000
vt 161.2391 44.3072 0.0000
vt 161.2391 43.9654 0.0000
vt 160.7902 44.3072 0.0000
vt 160.7902 43.9654 0.0000
vt 161.4713 43.9654 0.0000
vt 161.4713 44.3072 0.0000
vt 160.7017 60.6320 0.0000
vt 161.5597 60.6320 0.0000
vt 161.4713 61.0639 0.0000
vt 160.7902 61.0639 0.0000
vt 160.5372 59.1275 0.0000
vt 161.7243 59.1275 0.0000
vt 161.5597 59.8786 0.0000
vt 160.7017 59.8786 0.0000
vt 162.0086 -5.4657 0.0000
vt 161.9201 -5.0337 0.0000
vt 162.1731 -11.5723 0.0000
vt 162.0086 -10.8212 0.0000
vt 162.2712 15.7912 0.0000
vt 162.1731 16.5538 0.0000
vt 161.5796 40.0666 0.0000
vt 161.5796 39.2978 0.0000
vt 162.2824 39.2978 0.0000
vt 162.2712 40.0666 0.0000
vt 160.8880 40.0666 0.0000
vt 160.8768 39.2978 0.0000
vt 160.4392 44.7867 0.0000
vt 160.4279 44.0179 0.0000
vt 161.8335 44.0179 0.0000
vt 161.8223 44.7867 0.0000
vt 118.1986 48.8622 0.0000
vt 116.8154 48.8622 0.0000
vt 116.8042 48.0934 0.0000
vt 118.2098 48.0934 0.0000
vt 43.0890 51.2010 0.0000
vt 42.3974 51.2010 0.0000
vt 42.3974 50.4322 0.0000
vt 43.1002 50.4322 0.0000
vt 42.9909 114.3969 0.0000
vt 42.3974 114.3969 0.0000
vt 42.3974 113.6343 0.0000
vt 43.0890 113.6343 0.0000
vt 42.9909 155.2039 0.0000
vt 42.8264 155.9550 0.0000
vt 42.3974 155.9550 0.0000
vt 42.3974 155.2039 0.0000
vt 42.8264 150.4544 0.0000
vt 42.7379 150.8863 0.0000
vt 42.3974 150.8863 0.0000
vt 42.3974 150.4544 0.0000
vt 42.0568 150.8863 0.0000
vt 41.9684 150.4544 0.0000
vt -44.4131 150.5432 0.0000
vt -44.5016 150.1113 0.0000
vt -43.6436 150.1113 0.0000
vt -43.7320 150.5432 0.0000
vt -119.0739 117.1972 0.0000
vt -119.1623 116.7653 0.0000
vt -118.3043 116.7653 0.0000
vt -118.3928 117.1972 0.0000
vt -161.2391 59.7834 0.0000
vt -161.5796 59.7834 0.0000
vt -161.5796 59.3515 0.0000
vt -161.1506 59.3515 0.0000
vt -161.9201 59.7834 0.0000
vt -162.0086 59.3515 0.0000
vt -160.7902 -6.3143 0.0000
vt -161.4713 -6.3143 0.0000
vt -161.5597 -6.7462 0.0000
vt -160.7017 -6.7462 0.0000
vt -117.1665 -63.3850 0.0000
vt -117.8475 -63.3850 0.0000
vt -117.9360 -63.8169 0.0000
vt -117.0780 -63.8169 0.0000
vt -42.0568 -96.1367 0.0000
vt -42.3974 -96.1367 0.0000
vt -42.3974 -96.5686 0.0000
vt -41.9684 -96.5686 0.0000
vt -42.7379 -96.1367 0.0000
vt -42.8264 -96.5686 0.0000
vt 43.7320 -95.7935 0.0000
vt 43.6436 -96.2255 0.0000
vt 44.5016 -96.2255 0.0000
vt 44.4131 -95.7935 0.0000
vt 118.3928 -62.4476 0.0000
vt 118.3043 -62.8795 0.0000
vt 119.1623 -62.8795 0.0000
vt 119.0739 -62.4476 0.0000
vt 118.3043 -72.2326 0.0000
vt 118.1398 -72.9836 0.0000
vt 119.3269 -72.9836 0.0000
vt 119.1623 -72.2326 0.0000
vt 118.0418 -20.2372 0.0000
vt 119.4249 -20.2372 0.0000
vt 119.3269 -19.4746 0.0000
vt 118.1398 -19.4746 0.0000
vt 118.0305 35.1978 0.0000
vt 119.4361 35.1978 0.0000
vt 119.4249 35.9666 0.0000
vt 118.0418 35.9666 0.0000
vt 118.0305 78.5264 0.0000
vt 118.3043 75.3764 0.0000
vt 119.1623 75.3764 0.0000
vt 119.4361 78.5264 0.0000
vt 161.5796 54.1608 0.0000
vt 161.5796 51.0108 0.0000
vt 162.0086 51.0108 0.0000
vt 162.2824 54.1608 0.0000
vt 160.8768 54.1608 0.0000
vt 161.1506 51.0108 0.0000
vt 161.8335 26.1099 0.0000
vt 160.4279 26.1099 0.0000
vt 160.7017 22.9599 0.0000
vt 161.5597 22.9599 0.0000
vt 118.2098 1.8899 0.0000
vt 116.8042 1.8899 0.0000
vt 117.0780 -1.2601 0.0000
vt 117.9360 -1.2601 0.0000
vt 43.1002 -12.0095 0.0000
vt 42.3974 -12.0095 0.0000
vt 42.3974 -15.1595 0.0000
vt 42.8264 -15.1595 0.0000
vt 41.6946 -12.0095 0.0000
vt 41.9684 -15.1595 0.0000
vt 41.7058 51.2010 0.0000
vt 41.6946 50.4322 0.0000
vt 41.8038 114.3969 0.0000
vt 41.7058 113.6343 0.0000
vt 41.9684 155.9550 0.0000
vt 41.8038 155.2039 0.0000
vt -44.5016 155.5880 0.0000
vt -44.6661 154.8369 0.0000
vt -43.4790 154.8369 0.0000
vt -43.6436 155.5880 0.0000
vt -119.1623 119.9202 0.0000
vt -119.3269 119.1692 0.0000
vt -118.1398 119.1692 0.0000
vt -118.3043 119.9202 0.0000
vt -161.1506 58.5089 0.0000
vt -161.5796 58.5089 0.0000
vt -161.5796 57.7578 0.0000
vt -160.9860 57.7578 0.0000
vt -162.0086 58.5089 0.0000
vt -162.1731 57.7578 0.0000
vt -160.7017 -12.1909 0.0000
vt -161.5597 -12.1909 0.0000
vt -161.7243 -12.9420 0.0000
vt -160.5372 -12.9420 0.0000
vt -117.0780 -73.2352 0.0000
vt -117.9360 -73.2352 0.0000
vt -118.1006 -73.9863 0.0000
vt -116.9135 -73.9863 0.0000
vt -41.9684 -108.2673 0.0000
vt -42.3974 -108.2673 0.0000
vt -42.3974 -109.0183 0.0000
vt -41.8038 -109.0183 0.0000
vt -42.8264 -108.2673 0.0000
vt -42.9909 -109.0183 0.0000
vt 43.6436 -107.9003 0.0000
vt 43.4790 -108.6513 0.0000
vt 44.6661 -108.6513 0.0000
vt 44.5016 -107.9003 0.0000
vt 43.3810 -41.1626 0.0000
vt 44.7642 -41.1626 0.0000
vt 44.6661 -40.4000 0.0000
vt 43.4790 -40.4000 0.0000
vt 43.3698 32.8166 0.0000
vt 44.7754 32.8166 0.0000
vt 44.7642 33.5854 0.0000
vt 43.3810 33.5854 0.0000
vt 43.6436 89.5280 0.0000
vt 44.5016 89.5280 0.0000
vt 44.7754 92.6780 0.0000
vt 43.3698 92.6780 0.0000
vt 42.8264 163.1807 0.0000
vt 42.3974 163.1807 0.0000
vt 43.9985 161.5796 0.0000
vt 43.5695 162.7517 0.0000
vt 42.3974 161.5796 0.0000
vt 41.9684 163.1807 0.0000
vt 41.2253 162.7517 0.0000
vt 40.7963 162.0086 0.0000
vt 40.7963 161.5796 0.0000
vt -161.5796 23.5033 0.0000
vt -161.5796 26.6533 0.0000
vt -162.2824 26.6533 0.0000
vt -162.0086 23.5033 0.0000
vt -161.1506 23.5033 0.0000
vt -160.8768 26.6533 0.0000
vt -118.3043 -0.8623 0.0000
vt -118.0305 2.2877 0.0000
vt -119.4361 2.2877 0.0000
vt -119.1623 -0.8623 0.0000
vt -44.5016 -15.0138 0.0000
vt -43.6436 -15.0138 0.0000
vt -43.3698 -11.8639 0.0000
vt -44.7754 -11.8639 0.0000
vt 41.2253 160.4075 0.0000
vt 41.9684 159.9785 0.0000
vt 40.7963 161.1506 0.0000
vt 42.3974 159.9785 0.0000
vt 42.8264 159.9785 0.0000
vt 43.5695 160.4075 0.0000
vt 43.9985 161.1506 0.0000
vt -43.3810 51.1765 0.0000
vt -44.7642 51.1765 0.0000
vt -44.7754 50.4077 0.0000
vt -43.3698 50.4077 0.0000
vt -43.4790 114.1816 0.0000
vt -44.6661 114.1816 0.0000
vt -44.7642 113.4190 0.0000
vt -43.3810 113.4190 0.0000
vt -118.1398 93.2563 0.0000
vt -119.3269 93.2563 0.0000
vt -119.4249 92.4937 0.0000
vt -118.0418 92.4937 0.0000
vt -160.9860 57.2279 0.0000
vt -161.5796 57.2279 0.0000
vt -161.5796 56.4653 0.0000
vt -160.8880 56.4653 0.0000
vt -162.1731 57.2279 0.0000
vt -162.2712 56.4653 0.0000
vt -161.7243 15.7502 0.0000
vt -161.8223 14.9876 0.0000
vt -160.4392 14.9876 0.0000
vt -160.5372 15.7502 0.0000
vt -116.9135 -20.0629 0.0000
vt -118.1006 -20.0629 0.0000
vt -118.1986 -20.8255 0.0000
vt -116.8154 -20.8255 0.0000
vt -41.8038 -40.6153 0.0000
vt -42.3974 -40.6153 0.0000
vt -42.3974 -41.3779 0.0000
vt -41.7058 -41.3779 0.0000
vt -42.9909 -40.6153 0.0000
vt -43.0890 -41.3779 0.0000
vt -43.0890 33.5609 0.0000
vt -43.1002 32.7921 0.0000
vt -42.3974 32.7921 0.0000
vt -42.3974 33.5609 0.0000
vt -42.8264 89.6736 0.0000
vt -42.3974 89.6736 0.0000
vt -42.3974 92.8236 0.0000
vt -43.1002 92.8236 0.0000
vt -41.9684 89.6736 0.0000
vt -41.6946 92.8236 0.0000
vt -117.9360 75.7743 0.0000
vt -117.0780 75.7743 0.0000
vt -116.8042 78.9242 0.0000
vt -118.2098 78.9242 0.0000
vt -161.5597 51.5543 0.0000
vt -160.7017 51.5543 0.0000
vt -160.4279 54.7042 0.0000
vt -161.8335 54.7042 0.0000
vt -160.4279 39.2064 0.0000
vt -160.4392 39.9752 0.0000
vt -161.8223 39.9752 0.0000
vt -161.8335 39.2064 0.0000
vt -161.5796 43.9265 0.0000
vt -161.5796 44.6953 0.0000
vt -162.2712 44.6953 0.0000
vt -162.2824 43.9265 0.0000
vt -160.8768 43.9265 0.0000
vt -160.8880 44.6953 0.0000
vt -119.4361 48.0264 0.0000
vt -118.0305 48.0264 0.0000
vt -118.0418 48.7952 0.0000
vt -119.4249 48.7952 0.0000
vt -116.8154 35.8997 0.0000
vt -118.1986 35.8997 0.0000
vt -118.2098 35.1309 0.0000
vt -116.8042 35.1309 0.0000
vt -41.7058 33.5609 0.0000
vt -41.6946 32.7921 0.0000
vt 43.9985 162.0086 0.0000
# 353 texture coords

o Mesh132
g Mesh132
s 1
f 1/1/1 2/2/1 3/3/1 4/4/1 
f 5/5/2 6/6/2 2/7/2 1/8/2 
f 5/9/3 7/10/3 8/11/3 6/12/3 
f 9/13/4 10/14/4 7/15/4 5/16/4 
f 9/17/5 11/18/5 12/19/5 10/20/5 
f 13/21/6 14/22/6 11/23/6 9/24/6 
f 15/25/7 16/26/8 14/27/8 13/28/8 
f 17/29/9 18/30/9 16/31/9 15/32/9 
f 18/33/10 19/34/10 20/35/10 16/36/10 
s 2
f 19/34/10 21/37/10 22/38/10 20/35/10 
f 21/39/11 23/40/11 24/41/11 22/42/11 
f 25/43/12 26/44/12 24/45/12 23/46/12 
f 27/47/13 28/48/13 26/49/13 25/50/13 
s 1
f 29/51/13 30/52/13 28/48/13 27/47/13 
f 31/53/14 32/54/14 30/55/14 29/56/14 
f 31/57/15 33/58/15 34/59/15 32/60/15 
f 33/61/16 35/62/16 36/63/16 34/64/16 
s 2
f 35/62/16 37/65/16 38/66/16 36/63/16 
f 37/67/17 39/68/17 40/69/17 38/70/17 
f 41/71/18 42/72/18 40/73/18 39/74/18 
f 43/75/19 3/76/19 42/77/19 41/78/19 
s 1
f 44/79/19 4/80/19 3/76/19 43/75/19 
f 17/81/20 15/82/20 4/83/20 44/84/20 
f 13/85/21 1/86/21 4/87/21 15/88/21 
f 9/89/22 5/90/22 1/91/22 13/92/22 
s 2
f 2/2/1 45/93/1 42/94/1 3/3/1 
f 6/6/2 46/95/2 45/96/2 2/7/2 
f 6/12/3 8/11/3 47/97/3 46/98/3 
f 8/99/23 48/100/23 49/101/23 47/102/23 
s 1
f 7/103/23 50/104/23 48/100/23 8/99/23 
f 10/105/24 51/106/25 50/107/25 7/108/24 
f 10/109/26 12/110/26 52/111/27 51/112/27 
f 12/113/28 53/114/28 54/115/28 52/116/28 
f 11/117/29 55/118/29 53/119/29 12/120/29 
f 11/121/30 14/122/30 56/123/30 55/124/30 
f 14/125/31 16/126/31 20/127/31 56/128/31 
s 2
f 22/129/31 57/130/31 56/128/31 20/127/31 
f 24/131/32 58/132/33 57/133/33 22/134/33 
f 26/135/34 59/136/34 58/137/34 24/138/35 
f 26/139/36 28/140/36 60/141/36 59/142/36 
s 1
f 28/140/36 30/143/36 61/144/36 60/141/36 
f 30/145/37 32/146/37 62/147/37 61/148/37 
f 32/149/38 34/150/38 63/151/38 62/152/38 
f 34/153/39 36/154/39 64/155/39 63/156/39 
s 2
f 38/157/39 65/158/39 64/155/39 36/154/39 
f 40/159/40 66/160/40 65/161/40 38/162/40 
f 42/163/41 45/164/41 66/165/41 40/166/41 
f 45/167/42 46/168/42 67/169/42 66/170/42 
f 47/171/43 68/172/43 67/173/43 46/174/43 
f 49/175/44 69/176/44 68/177/44 47/178/44 
f 49/179/45 70/180/45 71/181/45 69/182/45 
f 48/183/46 72/184/46 70/185/46 49/186/46 
s 1
f 48/183/46 50/187/46 73/188/46 72/184/46 
f 50/189/47 51/190/47 74/191/47 73/192/47 
f 51/193/48 52/194/48 75/195/49 74/196/49 
f 52/197/50 54/198/50 76/199/50 75/200/50 
s 2
f 54/198/50 77/201/50 78/202/50 76/199/50 
f 53/114/28 79/203/28 77/204/28 54/115/28 
f 55/118/29 80/205/29 79/206/29 53/119/29 
f 55/124/30 56/123/30 57/207/30 80/208/30 
f 58/209/51 81/210/51 80/211/51 57/212/51 
f 59/213/52 82/214/52 81/215/52 58/216/52 
f 59/217/53 60/218/53 83/219/53 82/220/53 
s 1
f 60/218/53 61/221/53 84/222/53 83/219/53 
f 61/223/54 62/224/54 85/225/54 84/226/54 
f 62/227/55 63/228/55 86/229/55 85/230/55 
f 63/231/56 64/232/56 87/233/56 86/234/56 
s 2
f 65/235/56 88/236/56 87/233/56 64/232/56 
f 66/237/57 67/238/57 88/239/57 65/240/57 
f 68/241/58 89/242/58 88/243/58 67/244/58 
f 69/245/59 90/246/59 89/247/59 68/248/59 
f 71/249/60 91/250/60 90/251/60 69/252/60 
s off
f 91/253/61 92/254/61 72/255/61 71/256/61 
f 72/255/61 92/254/61 93/257/61 
f 94/258/61 95/259/61 93/257/61 92/254/61 
f 96/260/61 97/261/61 93/257/61 95/259/61 
s 1
f 97/262/62 98/263/62 99/264/62 96/265/62 
s 2
f 100/266/62 101/267/62 98/263/62 97/262/62 
f 102/268/63 103/269/63 101/270/63 100/271/63 
f 102/272/64 78/273/64 77/274/65 103/275/65 
s off
f 93/257/61 97/261/61 102/276/61 78/277/61 
f 102/276/61 97/261/61 100/278/61 
f 93/257/61 78/277/61 76/279/61 
f 75/280/61 72/255/61 93/257/61 76/279/61 
f 72/255/61 75/280/61 74/281/61 73/282/61 
s 2
f 79/283/66 104/284/66 103/285/67 77/286/67 
f 80/287/68 81/288/68 104/289/68 79/290/68 
f 81/291/69 82/292/69 105/293/69 104/294/69 
f 82/295/70 83/296/70 106/297/70 105/298/70 
s 1
f 84/299/70 107/300/70 106/297/70 83/296/70 
f 85/301/71 108/302/71 107/303/71 84/304/71 
f 85/305/72 86/306/72 109/307/72 108/308/72 
f 86/309/73 87/310/73 110/311/73 109/312/73 
s 2
f 87/310/73 88/313/73 89/314/73 110/311/73 
f 89/315/74 90/316/74 111/317/74 110/318/74 
f 91/319/75 92/320/75 111/321/75 90/322/75 
s 1
f 92/320/75 94/323/75 112/324/75 111/321/75 
f 94/325/76 95/326/76 113/327/76 112/328/76 
f 95/329/77 96/330/77 99/331/77 113/332/77 
f 99/333/78 107/334/78 108/335/78 113/336/78 
f 98/337/79 106/338/79 107/339/79 99/340/79 
s 2
f 98/337/79 101/341/79 105/342/79 106/338/79 
f 101/343/80 103/344/80 104/345/80 105/346/80 
s 1
f 108/347/81 109/348/81 112/349/81 113/350/81 
f 109/351/74 110/318/74 111/317/74 112/352/74 
s off
f 71/256/61 72/255/61 70/353/61 
# 102 polygons - 4 triangles

